<?xml version="1.0" encoding="UTF-8" standalone="no"?>
<!DOCTYPE svg PUBLIC "-//W3C//DTD SVG 1.1//EN" "http://www.w3.org/Graphics/SVG/1.1/DTD/svg11.dtd">
<svg version="1.1" xmlns="http://www.w3.org/2000/svg" xmlns:xlink="http://www.w3.org/1999/xlink" preserveAspectRatio="xMidYMid meet" viewBox="0 0 640 640" width="640" height="640"><defs><path d="M551.31 317.81C551.31 447.27 445.73 552.37 315.68 552.37C185.64 552.37 80.06 447.27 80.06 317.81C80.06 188.36 185.64 83.26 315.68 83.26C445.73 83.26 551.31 188.36 551.31 317.81Z" id="akEDUP7ms"></path><path d="" id="bge1VOTJa"></path><path d="M488.22 367.4C500.7 388.26 488.38 416.69 460.72 430.84C433.06 445 400.48 439.55 387.99 418.69C375.51 397.83 387.83 369.41 415.49 355.25C443.15 341.1 475.74 346.54 488.22 367.4Z" id="f57b9Qm11Y"></path><path d="M283.11 440.88C295.59 461.74 283.27 490.17 255.61 504.32C227.95 518.48 195.36 513.03 182.88 492.17C170.4 471.31 182.72 442.89 210.38 428.73C238.04 414.58 270.63 420.02 283.11 440.88Z" id="d4fo3C4wtZ"></path><path d="M426.81 355.76L382.17 187.35L307.78 271.52L233.69 254.16L252.58 343.45L285.66 450.24L222.97 433.66L218.46 416.63L146.71 145.91L293.3 216.87L361.19 108.16L360.34 72.58L406.79 60.27L490.15 374.78L426.81 355.76Z" id="f3QZ9HZkys"></path></defs><g><g><g><use xlink:href="#akEDUP7ms" opacity="1" fill="#ff0015" fill-opacity="1"></use></g><g><g><use xlink:href="#bge1VOTJa" opacity="1" fill-opacity="0" stroke="#000000" stroke-width="1" stroke-opacity="1"></use></g></g><g><use xlink:href="#f57b9Qm11Y" opacity="1" fill="#ffffff" fill-opacity="1"></use></g><g><use xlink:href="#d4fo3C4wtZ" opacity="1" fill="#ffffff" fill-opacity="1"></use></g><g><use xlink:href="#f3QZ9HZkys" opacity="1" fill="#ffffff" fill-opacity="1"></use><g><use xlink:href="#f3QZ9HZkys" opacity="1" fill-opacity="0" stroke="#ffffff" stroke-width="1" stroke-opacity="1"></use></g></g></g></g></svg>